# xmcd
#
# Track frame offsets: 
#        150
#        13596
#        26824
#        39741
#        56596
#        71088
#        86083
#        98778
#        112238
#        126881
#        139981
#        153153
#        167095
#        178094
#        189377
#        201539
#        213751
#        225784
#        238725
#        250263
#        263339
#        277431
#        292721
#        304707
#
# Disc length: 4217 seconds
#
# Revision: 0
# Processed by: cddbd v1.5.2PL0 Copyright (c) Steve Scherf et al.
# Submitted via: ExactAudioCopy v1.0b3
#
DISCID=5d107718
DTITLE=Various Artist - Barrelhouse Women, Vol. 1 (1925-1930)
DYEAR=1995
DGENRE=Blues
TTITLE0=Evelyn Brickey - My Man Is Somebody Elses Too
TTITLE1=Evelyn Brickey - Down In The Valley Blues
TTITLE2=Katherine Adkins - Individual Blues
TTITLE3=Katherine Adkins - Did She Fall Or Was She Pushed?
TTITLE4=Bertha Ross - Blues Rode Me All Night Long
TTITLE5=Bertha Ross - My Jelly Blues
TTITLE6=Bertha Ross - Lost Man Blues
TTITLE7=Bertha Ross - Tea-Rollin' Blues
TTITLE8=Frances Wallace and Clara Burston - Low Down Man Blues
TTITLE9=Frances Wallace and Clara Burston - Too Late Too Late Blues (The
TTITLE9=Flu Blues)
TTITLE10=Frances Wallace and Clara Burston - Weak And Nervous Blues
TTITLE11=Frances Wallace and Clara Burston - Georgia Man Blues
TTITLE12=Frances Wallace and Clara Burston - I Had To Smack That Thing
TTITLE13=Frances Wallace and Clara Burston - Smother Me Blues
TTITLE14=Frances Wallace and Clara Burston - 1930 Mama (Take 1)
TTITLE15=Frances Wallace and Clara Burston - 1930 Mama (Take 2)
TTITLE16=Frances Wallace and Clara Burston - CP Blues
TTITLE17=Frances Wallace and Clara Burston - Beggin' Man Blues
TTITLE18=Frances Wallace and Clara Burston - Frankie And Clara - Part 1
TTITLE19=Frances Wallace and Clara Burston - Frankie And Clara - Part 2
TTITLE20=Frances Wallace and Clara Burston - Try That Man O'Mine
TTITLE21=Frances Wallace and Clara Burston - Pay With Money
TTITLE22=Frances Wallace and Clara Burston - Can't Get Enough
TTITLE23=Frances Wallace and Clara Burston - Good And Hot
EXTD=
EXTT0=
EXTT1=
EXTT2=
EXTT3=
EXTT4=
EXTT5=
EXTT6=
EXTT7=
EXTT8=
EXTT9=
EXTT10=
EXTT11=
EXTT12=
EXTT13=
EXTT14=
EXTT15=
EXTT16=
EXTT17=
EXTT18=
EXTT19=
EXTT20=
EXTT21=
EXTT22=
EXTT23=
PLAYORDER=
